<svg width="170" height="43" viewBox="0 0 170 43" fill="none" xmlns="http://www.w3.org/2000/svg">
<g clip-path="url(#clip0_91_299)">
<path d="M47.6577 18.8761L38.3873 2.84191C37.3917 1.14645 35.5964 0.0968866 33.6216 0.0807394L14.934 3.38518e-06C12.9755 -0.0161438 11.1475 1.01728 10.1682 2.71273L0.750992 18.65C-0.244591 20.3293 -0.260913 22.4123 0.734671 24.1078L9.9887 40.1581C10.9843 41.8374 12.7796 42.9031 14.7544 42.9031L33.4257 42.9677C35.4006 42.9839 37.2122 41.9504 38.2241 40.2711L47.625 24.3177C48.6369 22.6384 48.6369 20.5554 47.6577 18.8599V18.8761ZM45.2095 22.6707C45.0953 23.1228 44.9157 23.5588 44.6872 23.9786L36.4778 37.9459C35.5964 39.4153 34.0133 40.3034 32.2669 40.3034L15.9622 40.2388C14.2322 40.2388 12.6327 39.3184 11.8003 37.8329L3.67246 23.801C2.80744 22.3154 2.80744 20.4908 3.68878 19.0214L11.9309 5.07023C12.7959 3.58468 14.3954 2.69659 16.1254 2.69659L32.4628 2.76118C33.7358 2.76118 34.9436 3.26174 35.8412 4.16598C36.135 4.45663 36.4125 4.79572 36.6083 5.16711L44.7036 19.1829C45.3238 20.2486 45.487 21.4919 45.2095 22.6545V22.6707Z" fill="white"/>
<path d="M32.006 32.3913L31.7611 32.2137L19.504 32.1814L24.482 23.7848L26.7506 26.0616L26.7832 26.0939C27.2402 26.4491 27.9094 26.4168 28.3664 26.0455L28.4806 25.9486C29.0845 25.2865 29.6557 24.7052 30.178 24.1562C30.3249 24.0109 30.5208 23.8494 30.7329 23.6718C31.1573 23.3166 31.5979 22.9129 31.9244 22.4769C32.5119 21.6696 32.1855 21.0398 31.9244 20.733L31.8101 20.62C31.3205 20.184 30.8145 19.635 30.3249 19.1183C29.8026 18.537 29.2477 17.9396 28.6438 17.439C28.4317 17.2614 28.0236 16.9223 27.4687 16.9223C27.2239 16.9223 26.9954 16.9869 26.7506 17.1161L26.6853 17.1645L24.5636 19.3282L19.5204 10.7541H31.2389C31.7122 10.7541 32.0223 10.5603 32.2018 10.3988C32.463 10.1566 32.6098 9.83366 32.6098 9.47843C32.6098 8.73565 31.9896 8.1705 31.2226 8.1705H17.2191C16.5663 8.1705 15.8481 8.59033 15.7665 9.31695L15.7339 9.62375L22.7356 21.5242L15.8481 33.0856L15.8155 33.231C15.7502 33.4893 15.6686 34.1352 16.4357 34.6196L16.6805 34.7649L31.2062 34.8134C31.8428 34.8134 32.3814 34.4581 32.5609 33.9091C32.7404 33.344 32.5282 32.7465 32.006 32.3752V32.3913ZM27.5993 19.5543L29.6231 21.6211L29.4925 21.7342C29.2967 21.9279 29.0682 22.1378 28.9376 22.2509L28.905 22.2832C28.7581 22.4285 28.6438 22.5254 28.5949 22.5738C28.3827 22.7676 28.1705 22.9936 27.9747 23.2197L27.5503 23.6395L25.5755 21.5404L27.583 19.5543H27.5993Z" fill="white"/>
<path d="M32.006 32.3913L31.7611 32.2137L19.504 32.1814L24.482 23.7848L26.7506 26.0616L26.7832 26.0939C27.2402 26.4491 27.9094 26.4168 28.3664 26.0455L28.4806 25.9486C29.0845 25.2865 29.6557 24.7052 30.178 24.1562C30.3249 24.0109 30.5208 23.8494 30.7329 23.6718C31.1573 23.3166 31.5979 22.9129 31.9244 22.4769C32.5119 21.6696 32.1855 21.0398 31.9244 20.733L31.8101 20.62C31.3205 20.184 30.8145 19.635 30.3249 19.1183C29.8026 18.537 29.2477 17.9396 28.6438 17.439C28.4317 17.2614 28.0236 16.9223 27.4687 16.9223C27.2239 16.9223 26.9954 16.9869 26.7506 17.1161L26.6853 17.1645L24.5636 19.3282L19.5204 10.7541H31.2389C31.7122 10.7541 32.0223 10.5603 32.2018 10.3988C32.463 10.1566 32.6098 9.83366 32.6098 9.47843C32.6098 8.73565 31.9896 8.1705 31.2226 8.1705H17.2191C16.5663 8.1705 15.8481 8.59033 15.7665 9.31695L15.7339 9.62375L22.7356 21.5242L15.8481 33.0856L15.8155 33.231C15.7502 33.4893 15.6686 34.1352 16.4357 34.6196L16.6805 34.7649L31.2062 34.8134C31.8428 34.8134 32.3814 34.4581 32.5609 33.9091C32.7404 33.344 32.5282 32.7465 32.006 32.3752V32.3913ZM27.5993 19.5543L29.6231 21.6211L29.4925 21.7342C29.2967 21.9279 29.0682 22.1378 28.9376 22.2509L28.905 22.2832C28.7581 22.4285 28.6438 22.5254 28.5949 22.5738C28.3827 22.7676 28.1705 22.9936 27.9747 23.2197L27.5503 23.6395L25.5755 21.5404L27.583 19.5543H27.5993Z" fill="white"/>
<path d="M120.172 2.48667C120.45 2.22831 120.613 1.85693 120.613 1.46939C120.613 0.662032 119.944 0.0161438 119.095 0.0161438H104.112C103.394 0.0161438 102.611 0.484413 102.529 1.27563L102.497 1.61472L109.972 14.3226L102.611 26.6752L102.562 26.8366C102.48 27.1112 102.415 27.8216 103.247 28.3545L103.508 28.516L119.046 28.5644C119.748 28.5644 120.319 28.1769 120.515 27.5794C120.711 26.9658 120.482 26.3038 119.911 25.9001L119.634 25.7063L106.593 25.674L111.849 16.7769L114.231 19.1829L114.297 19.2313C114.803 19.6188 115.553 19.6027 116.059 19.1829L116.157 19.086C116.81 18.3594 117.414 17.7458 117.985 17.1645C118.148 17.003 118.344 16.8254 118.556 16.6478C119.013 16.2441 119.487 15.8243 119.846 15.356C120.319 14.7101 120.319 14.0319 119.846 13.4506L119.732 13.3376C119.209 12.8693 118.654 12.2719 118.148 11.739C117.577 11.1093 116.973 10.4634 116.337 9.93053C116.108 9.73676 115.668 9.36537 115.064 9.36537C114.786 9.36537 114.525 9.44611 114.28 9.57529L114.182 9.62373L111.946 11.9166L106.626 2.8419H119.079C119.601 2.8419 119.944 2.63199 120.14 2.45437L120.172 2.48667ZM113.611 14.371L115.194 12.7886L116.826 14.4194C116.647 14.5971 116.451 14.7585 116.353 14.8716C116.19 15.0169 116.076 15.1299 116.027 15.1784C115.815 15.3883 115.619 15.5982 115.423 15.8081L115.194 16.0342L113.628 14.371H113.611Z" fill="white"/>
<path d="M91.1371 14.92C92.8672 14.92 94.8583 14.7908 96.7679 13.2569C99.1997 11.3192 100.097 8.25122 99.1345 5.24784C98.1715 2.26061 95.6254 0.274501 92.5081 0.0807341C91.9042 0.0484397 91.2677 0.0322925 90.5333 0.0322925C90.1252 0.0322925 89.7662 0.0322925 89.4234 0.0322925C88.9664 0.0322925 88.5421 0.0161453 88.0851 0.0322925C87.0079 0.0645869 85.8328 0.0968813 84.9025 0.0645869C84.6414 0.0645869 84.3965 0.0645869 84.1354 0.0645869H83.9396H82.6339V26.1262L82.6012 26.2876C82.6012 26.3522 82.6012 26.5783 82.6012 26.6752C82.5849 27.0466 82.5523 27.4664 82.7318 27.8539C82.9603 28.3222 83.4336 28.5967 83.9885 28.5967C84.723 28.5967 85.3268 28.1284 85.4411 27.4825V2.95494H92.7529C92.9488 2.97108 93.7975 3.26173 94.1076 3.4232C95.4785 4.10139 96.4088 5.40931 96.6047 6.911C96.8005 8.44499 96.2456 9.91438 95.0705 10.9155C93.9444 11.8843 92.606 12.0943 90.9576 12.0943C90.5985 12.0943 90.2558 12.0943 89.8804 12.0943H89.8151C89.1949 12.0943 88.5094 12.062 87.9709 12.0943H87.8076C87.4486 12.175 87.1385 12.3849 86.9263 12.7078C86.6978 13.0631 86.6325 13.4991 86.7305 13.9189L86.7794 14.0804L86.9263 14.2903C88.183 15.905 89.4397 17.5682 90.6638 19.1667C92.4428 21.4919 94.2708 23.8979 96.1314 26.2715C96.2619 26.433 96.3762 26.5944 96.5068 26.7559C96.8005 27.1596 97.127 27.5633 97.4371 27.9185C97.8288 28.3545 98.2531 28.5805 98.7101 28.5805C99.2161 28.5805 99.8363 28.2576 100.048 27.3695L100.163 26.9012L91.0718 14.92H91.1371Z" fill="white"/>
<path d="M142.581 0.888089C142.369 0.371379 141.814 0.0322876 141.226 0.0322876C140.949 0.0322876 140.688 0.113024 140.443 0.242201L140.345 0.290643L127.533 13.1923V1.37251C127.435 0.678176 126.831 0.161465 126.113 0.161465C125.689 0.161465 125.297 0.339084 125.02 0.629734C124.758 0.904237 124.644 1.27562 124.677 1.64701V27.1111V27.1757C124.677 27.3534 124.709 27.757 125.02 28.0961C125.297 28.3868 125.689 28.5482 126.097 28.5482C126.88 28.5482 127.484 27.9831 127.517 27.2242V15.3398L140.035 27.9508C140.329 28.3222 140.753 28.5321 141.21 28.5321C141.781 28.5321 142.287 28.2092 142.516 27.7086C142.744 27.208 142.646 26.6429 142.238 26.1585C140.329 24.1078 138.305 22.1378 136.346 20.2163L136.297 20.1678C134.323 18.2463 132.299 16.2602 130.406 14.2257L142.206 2.34134C142.63 1.92151 142.761 1.34021 142.548 0.839648L142.581 0.888089Z" fill="white"/>
<path d="M158.102 0.952678C157.874 0.468262 157.401 0.177612 156.862 0.177612C156.682 0.177612 156.487 0.209907 156.323 0.274496L155.932 0.41982L143.577 27.4341L143.968 27.9347C144.099 28.0961 144.474 28.5967 145.127 28.5967C145.617 28.5967 146.025 28.3383 146.335 27.8055L156.829 4.8926L167.487 28.0315L167.683 28.2253C167.96 28.4514 168.287 28.5805 168.613 28.5805C169.348 28.5805 169.919 27.9992 169.984 27.1919V26.9174L158.102 0.952678Z" fill="white"/>
<path d="M68.2712 0.177612C68.0916 0.177612 67.8958 0.209907 67.7326 0.274496L67.3409 0.41982L54.9858 27.4341L55.3775 27.9347C55.7203 28.3706 56.112 28.5967 56.5363 28.5967C57.026 28.5967 57.434 28.3383 57.7441 27.8055L68.2385 4.8926L78.8962 28.0315L79.092 28.2253C79.3695 28.4514 79.6959 28.5805 80.0223 28.5805C80.7568 28.5805 81.328 27.9992 81.3933 27.1919V26.9174L69.5116 0.952678C69.2831 0.468262 68.8098 0.177612 68.2712 0.177612Z" fill="white"/>
<path d="M61.09 36.8156C60.7962 36.5088 60.5188 36.2989 60.2413 36.202C59.9639 36.1051 59.7027 36.0405 59.4253 36.0405C59.0172 36.0405 58.6418 36.1051 58.3154 36.2505C57.989 36.3958 57.6952 36.5895 57.4667 36.8479C57.2382 37.1063 57.0424 37.3969 56.9118 37.736C56.7812 38.0751 56.716 38.4303 56.716 38.834C56.716 39.2538 56.7812 39.6414 56.9118 39.9966C57.0424 40.3518 57.2219 40.6586 57.4667 40.917C57.7115 41.1754 57.989 41.3691 58.3154 41.5306C58.6418 41.6759 59.0172 41.7567 59.4253 41.7567C59.7517 41.7567 60.0618 41.6759 60.3556 41.5306C60.6493 41.3853 60.9431 41.1431 61.2043 40.804L62.363 41.6275C62.004 42.1119 61.5796 42.4671 61.0574 42.6932C60.5514 42.9193 59.9965 43.0161 59.4253 43.0161C58.8214 43.0161 58.2501 42.9192 57.7442 42.7255C57.2382 42.5317 56.7976 42.2572 56.4222 41.902C56.0468 41.5467 55.7693 41.1108 55.5572 40.6102C55.345 40.1096 55.2471 39.5606 55.2471 38.947C55.2471 38.3334 55.345 37.7521 55.5572 37.2516C55.7693 36.7349 56.0468 36.2989 56.4222 35.9437C56.7976 35.5884 57.2219 35.3139 57.7442 35.104C58.2501 34.9102 58.8051 34.8134 59.4253 34.8134C59.9639 34.8134 60.4535 34.9102 60.9105 35.0879C61.3675 35.2816 61.7918 35.5884 62.1835 36.0405L61.09 36.8318V36.8156Z" fill="white"/>
<path d="M70.3602 34.991H71.568L74.9628 42.7901H73.3633L72.6289 40.9977H69.2015L68.4833 42.7901H66.9165L70.3439 34.991H70.3602ZM72.1556 39.819L70.9478 36.638L69.7074 39.819H72.1556Z" fill="white"/>
<path d="M80.3816 34.991H83.1235C83.4989 34.991 83.8743 35.0233 84.217 35.0878C84.5761 35.1524 84.8862 35.2816 85.1636 35.4431C85.4411 35.6046 85.6533 35.8468 85.8165 36.1213C85.9797 36.4119 86.0613 36.7672 86.0613 37.2193C86.0613 37.7844 85.8981 38.2527 85.588 38.6402C85.2779 39.0278 84.8209 39.2538 84.2333 39.3346L86.3224 42.7901H84.625L82.7971 39.4799H81.7688V42.7901H80.3652V34.991H80.3816ZM82.8787 38.3011C83.0745 38.3011 83.2867 38.3011 83.4826 38.2689C83.6784 38.2527 83.8743 38.2043 84.0375 38.1397C84.2007 38.0751 84.3476 37.9621 84.4455 37.8167C84.5434 37.6714 84.6087 37.4776 84.6087 37.2193C84.6087 36.9932 84.5597 36.8156 84.4618 36.6703C84.3639 36.5249 84.2333 36.4281 84.0864 36.3635C83.9232 36.2989 83.76 36.2504 83.5642 36.2182C83.3683 36.202 83.1888 36.1859 83.0092 36.1859H81.8015V38.3011H82.895H82.8787Z" fill="white"/>
<path d="M91.9043 34.991H94.9726C95.2664 34.991 95.5602 35.0233 95.854 35.0878C96.1478 35.1524 96.4089 35.2655 96.6211 35.4269C96.8496 35.5884 97.0291 35.7822 97.176 36.0405C97.3229 36.2827 97.3882 36.5895 97.3882 36.9448C97.3882 37.3808 97.2576 37.7521 97.0128 38.0428C96.768 38.3334 96.4252 38.5272 96.0172 38.6564C96.262 38.7048 96.4905 38.7694 96.7027 38.8824C96.9149 38.9955 97.0944 39.1247 97.2413 39.2861C97.3882 39.4476 97.5024 39.6414 97.6003 39.8674C97.6819 40.0773 97.7309 40.3195 97.7309 40.5618C97.7309 40.9816 97.6493 41.3368 97.4698 41.6275C97.3066 41.9181 97.0781 42.1442 96.8006 42.3057C96.5232 42.4833 96.1967 42.5963 95.8377 42.677C95.4786 42.7578 95.1195 42.7901 94.7442 42.7901H91.9043V34.991ZM93.3079 38.172H94.5973C95.0706 38.172 95.4133 38.0751 95.6581 37.8975C95.8866 37.7198 96.0172 37.4776 96.0172 37.187C96.0172 36.8479 95.903 36.5895 95.6581 36.4281C95.4133 36.2666 95.0216 36.1859 94.4993 36.1859H93.3405V38.172H93.3079ZM93.3079 41.6113H94.5973C94.7768 41.6113 94.9727 41.6113 95.1685 41.579C95.3807 41.5629 95.5602 41.4983 95.7234 41.4176C95.8866 41.3368 96.0335 41.2238 96.1478 41.0623C96.262 40.9008 96.311 40.7071 96.311 40.4487C96.311 40.045 96.1804 39.7544 95.9029 39.5929C95.6255 39.4314 95.2175 39.3507 94.6462 39.3507H93.2916V41.5952L93.3079 41.6113Z" fill="white"/>
<path d="M103.215 38.9309C103.215 38.3012 103.313 37.736 103.525 37.2354C103.737 36.7187 104.015 36.2828 104.39 35.9275C104.765 35.5723 105.19 35.2978 105.712 35.0879C106.218 34.8941 106.773 34.7972 107.393 34.7972C108.013 34.7972 108.568 34.8779 109.09 35.0717C109.596 35.2655 110.037 35.54 110.412 35.8952C110.788 36.2505 111.082 36.6864 111.277 37.2031C111.49 37.7037 111.588 38.2689 111.588 38.8986C111.588 39.5283 111.49 40.0612 111.277 40.5618C111.065 41.0623 110.788 41.4983 110.412 41.8535C110.037 42.2088 109.596 42.4994 109.09 42.6932C108.584 42.9031 108.013 43 107.393 43C106.789 43 106.218 42.9031 105.712 42.7093C105.206 42.5156 104.765 42.2411 104.39 41.8858C104.015 41.5306 103.737 41.0946 103.525 40.5941C103.313 40.0935 103.215 39.5445 103.215 38.9309ZM104.684 38.834C104.684 39.2538 104.749 39.6414 104.88 39.9966C105.01 40.3519 105.19 40.6586 105.435 40.917C105.679 41.1754 105.957 41.3691 106.283 41.5306C106.61 41.6759 106.985 41.7567 107.393 41.7567C107.801 41.7567 108.176 41.6759 108.503 41.5306C108.829 41.3853 109.123 41.1754 109.368 40.917C109.613 40.6586 109.792 40.3519 109.923 39.9966C110.053 39.6414 110.119 39.2538 110.119 38.834C110.119 38.4465 110.053 38.0751 109.923 37.736C109.792 37.3969 109.613 37.1063 109.368 36.8479C109.123 36.5896 108.846 36.3958 108.503 36.2505C108.176 36.1051 107.801 36.0405 107.393 36.0405C106.985 36.0405 106.61 36.1051 106.283 36.2505C105.957 36.3958 105.663 36.5896 105.435 36.8479C105.206 37.1063 105.01 37.3969 104.88 37.736C104.749 38.0751 104.684 38.4303 104.684 38.834Z" fill="white"/>
<path d="M117.43 34.991H119.291L123.11 40.7878H123.126V34.991H124.53V42.7901H122.751L118.85 36.7995H118.834V42.7901H117.43V34.991Z" fill="white"/>
<path d="M138.631 34.991H140.035V38.1074H143.724V34.991H145.127V42.7901H143.724V39.3507H140.035V42.7901H138.631V34.991Z" fill="white"/>
<path d="M157.711 39.932C157.711 40.4003 157.629 40.8201 157.466 41.2076C157.303 41.579 157.074 41.902 156.797 42.1765C156.519 42.451 156.177 42.6447 155.801 42.7901C155.409 42.9354 155.001 43 154.544 43C154.087 43 153.679 42.9354 153.288 42.7901C152.896 42.6447 152.57 42.4348 152.276 42.1765C151.982 41.9181 151.77 41.5952 151.607 41.2076C151.443 40.8363 151.362 40.4003 151.362 39.932V34.991H152.765V39.8836C152.765 40.0773 152.798 40.2711 152.847 40.481C152.896 40.6909 153.01 40.8847 153.141 41.0623C153.271 41.2399 153.467 41.3853 153.679 41.4983C153.908 41.6113 154.185 41.6759 154.528 41.6759C154.871 41.6759 155.148 41.6113 155.377 41.4983C155.605 41.3853 155.785 41.2399 155.915 41.0623C156.046 40.8847 156.144 40.6909 156.209 40.481C156.274 40.2711 156.291 40.0773 156.291 39.8836V34.991H157.694V39.932H157.711Z" fill="white"/>
<path d="M163.961 34.991H167.03C167.324 34.991 167.617 35.0233 167.911 35.0878C168.205 35.1524 168.466 35.2655 168.678 35.4269C168.907 35.5884 169.086 35.7822 169.233 36.0405C169.38 36.2827 169.445 36.5895 169.445 36.9448C169.445 37.3808 169.315 37.7521 169.07 38.0428C168.825 38.3334 168.482 38.5272 168.074 38.6564C168.319 38.7048 168.548 38.7694 168.76 38.8824C168.972 38.9955 169.152 39.1247 169.298 39.2861C169.445 39.4476 169.56 39.6414 169.657 39.8674C169.739 40.0773 169.788 40.3195 169.788 40.5618C169.788 40.9816 169.706 41.3368 169.527 41.6275C169.364 41.9181 169.135 42.1442 168.858 42.3057C168.58 42.4833 168.254 42.5963 167.895 42.677C167.536 42.7578 167.177 42.7901 166.801 42.7901H163.961V34.991ZM165.365 38.172H166.654C167.128 38.172 167.47 38.0751 167.715 37.8975C167.944 37.7198 168.074 37.4776 168.074 37.187C168.074 36.8479 167.96 36.5895 167.715 36.4281C167.47 36.2666 167.079 36.1859 166.556 36.1859H165.398V38.172H165.365ZM165.365 41.6113H166.654C166.834 41.6113 167.03 41.6113 167.226 41.579C167.438 41.5629 167.617 41.4983 167.781 41.4176C167.944 41.3368 168.091 41.2238 168.205 41.0623C168.319 40.917 168.368 40.7071 168.368 40.4487C168.368 40.045 168.238 39.7544 167.96 39.5929C167.683 39.4314 167.275 39.3507 166.703 39.3507H165.349V41.5952L165.365 41.6113Z" fill="white"/>
</g>
<defs>
<clipPath id="clip0_91_299">
<rect width="170" height="43" fill="white"/>
</clipPath>
</defs>
</svg>
